# xmcd CD database file
#
# Track frame offsets:
#	183
#	30623
#	67623
#	100855
#	130240
#	172930
#	215898
#	247998
#	276573
#	309838
#
# Disc length: 4486 seconds
#
# Revision: 0
# Processed by: cddbd v1.5.2PL0 Copyright (c) Steve Scherf et al.
# Submitted via: CDex 1.70beta2
#
DISCID=8511840a
DTITLE=oscar peterson - jazz masters
DYEAR=1900
DGENRE=Jazz
TTITLE0=Wierd Blues
TTITLE1=Misty/Waltz for Debby
TTITLE2=Now's the time.
TTITLE3=Sometimes I'm happy
TTITLE4=Bach's Blues
TTITLE5=Tenderly
TTITLE6=Au Privave
TTITLE7=If Ishould lose you.
TTITLE8=When your lover has gone.
TTITLE9=Stuffy.
EXTD=
EXTT0=
EXTT1=
EXTT2=
EXTT3=
EXTT4=
EXTT5=
EXTT6=
EXTT7=
EXTT8=
EXTT9=
PLAYORDER=
